<svg version="1.1" id="Layer_1" xmlns="http://www.w3.org/2000/svg" xmlns:xlink="http://www.w3.org/1999/xlink" x="0px" y="0px" viewBox="0 0 24 24" style="enable-background:new 0 0 24 24;" xml:space="preserve" data-v-0b1d9552=""><style type="text/css"> .st0{fill:white} </style><g><path class="st0" d="M17,3H7C5.35,3,4,4.35,4,6v11c0,1.65,1.35,3,3,3h10c1.65,0,3-1.35,3-3V6C20,4.35,18.65,3,17,3z M7,5h10
		c0.55,0,1,0.45,1,1v2H6V6C6,5.45,6.45,5,7,5z M18,10v3H6v-3H18z M17,18H7c-0.55,0-1-0.45-1-1v-2h12v2C18,17.55,17.55,18,17,18z"></path></g></svg>