<svg width="24" height="24" viewBox="0 0 24 24" fill="none" xmlns="http://www.w3.org/2000/svg" data-v-0b1d9552=""><path fill-rule="evenodd" clip-rule="evenodd" d="M12 0C5.37 0 0 5.37 0 12C0 18.63 5.37 24 12 24C18.63 24 24 18.63 24 12C24 5.37 18.63 0 12 0ZM14.31 18.98C13.96 19.02 13.83 18.8 13.83 18.63V16.65C13.83 15.99 13.61 15.55 13.35 15.33C14.94 15.15 16.61 14.58 16.61 11.81C16.61 11.02 16.3 10.36 15.86 9.87C15.86 9.86 15.86 9.84 15.87 9.82C15.94 9.58 16.13 8.87 15.77 7.98C15.77 7.98 15.15 7.8 13.79 8.73C13.22 8.6 12.6 8.51 11.98 8.51C11.36 8.51 10.75 8.55 10.17 8.73C8.8 7.81 8.19 7.98 8.19 7.98C7.8 8.93 8.05 9.67 8.1 9.82C7.62 10.36 7.35 10.97 7.35 11.77C7.35 14.54 9.02 15.16 10.61 15.34C10.43 15.52 10.21 15.82 10.17 16.31C9.77 16.49 8.76 16.79 8.1 15.69C8.1 15.69 7.7 14.99 7 14.94C7 14.94 6.3 14.94 6.96 15.38C6.96 15.38 7.44 15.6 7.75 16.44C7.75 16.44 8.19 17.85 10.17 17.41V18.64C10.17 18.82 10.04 19.04 9.69 18.99C6.87 18.02 4.8 15.34 4.8 12.16C4.8 8.2 8.01 4.98 11.98 4.98C15.95 4.98 19.16 8.19 19.2 12.16C19.2 15.33 17.17 18.02 14.31 18.99V18.98Z" fill="#01001F"></path></svg>