<svg width="24" height="24" viewBox="0 0 24 24" fill="none" xmlns="http://www.w3.org/2000/svg" data-v-0b1d9552=""><path fill-rule="evenodd" clip-rule="evenodd" d="M12 0C5.37 0 0 5.37 0 12C0 18.63 5.37 24 12 24C18.63 24 24 18.63 24 12C24 5.37 18.63 0 12 0ZM12 19.2C8.02 19.2 4.8 15.98 4.8 12C4.8 8.02 8.02 4.8 12 4.8C15.98 4.8 19.2 8.02 19.2 12C19.2 15.98 15.98 19.2 12 19.2Z" fill="#01001F"></path><path fill-rule="evenodd" clip-rule="evenodd" d="M15.12 14.33C13.32 13.28 11.07 13.03 8.44998 13.6C8.21998 13.65 8.07998 13.87 8.12998 14.08C8.17998 14.3 8.40998 14.43 8.63998 14.38C11.03 13.86 13.06 14.08 14.68 15.01C14.89 15.13 15.15 15.07 15.27 14.88C15.39 14.68 15.33 14.43 15.12 14.32V14.33Z" fill="#01001F"></path><path fill-rule="evenodd" clip-rule="evenodd" d="M15.94 12.41C13.82 11.17 10.72 10.83 8.21999 11.54C7.92999 11.62 7.77999 11.9 7.85999 12.17C7.93999 12.44 8.23999 12.58 8.51999 12.51C10.7 11.88 13.51 12.19 15.36 13.28C15.61 13.42 15.94 13.35 16.1 13.11C16.26 12.87 16.17 12.56 15.94 12.42V12.41Z" fill="#01001F"></path><path fill-rule="evenodd" clip-rule="evenodd" d="M16.82 10.2C14.28 8.76 10.24 8.62 7.81997 9.33C7.47997 9.43 7.28997 9.78 7.38997 10.1C7.49997 10.43 7.85997 10.61 8.18997 10.51C10.31 9.9 13.96 10.02 16.17 11.27C16.47 11.45 16.87 11.35 17.04 11.05C17.22 10.76 17.12 10.39 16.82 10.21V10.2Z" fill="#01001F"></path></svg>