<svg width="24" height="24" viewBox="0 0 24 24" fill="none" xmlns="http://www.w3.org/2000/svg" data-v-0b1d9552=""><path fill-rule="evenodd" clip-rule="evenodd" d="M12 0C5.37 0 0 5.37 0 12C0 18.63 5.37 24 12 24C18.63 24 24 18.63 24 12C24 5.37 18.63 0 12 0ZM18.88 14.89C18.82 15.88 18.02 16.65 17.03 16.7C15.6 16.77 13.55 16.86 12 16.86C10.45 16.86 8.41 16.77 6.97 16.7C5.98 16.65 5.18 15.88 5.12 14.89C5.06 13.94 5 12.78 5 11.86C5 10.94 5.06 9.78 5.12 8.83C5.18 7.84 5.98 7.07 6.97 7.02C8.4 6.95 10.45 6.86 12 6.86C13.55 6.86 15.59 6.95 17.03 7.02C18.02 7.07 18.82 7.84 18.88 8.83C18.94 9.78 19 10.94 19 11.86C19 12.78 18.94 13.94 18.88 14.89Z" fill="#01001F"></path><path fill-rule="evenodd" clip-rule="evenodd" d="M10.5 13.86L14.5 11.86L10.5 9.85999V13.86Z" fill="#01001F"></path></svg>