<svg width="158" height="32" viewBox="0 0 158 32" fill="none" xmlns="http://www.w3.org/2000/svg" data-v-3b52fcb8=""><g clip-path="url(#clip0_1907_773)"><path d="M2.00002 11.7951L15.6165 10.3347L29.233 11.7951V14.4708H2.00002V11.7951Z" fill="#2E21DE"></path><path d="M2.00002 17.4792H29.233V20.1549L15.6165 21.6153L2.00002 20.1549V17.4792Z" fill="#2E21DE"></path><path d="M2.00002 23.1667L15.6165 24.8688L29.233 23.1667V26.0911L15.6165 29.982L2.00002 26.0911V23.1667Z" fill="#2E21DE"></path><path d="M2.00005 5.86593L15.6165 1.97501L29.2331 5.86593V8.78324L15.6165 7.08118L2.00005 8.78324V5.86593Z" fill="#2E21DE"></path><path d="M149.635 10.8951C149.63 10.4662 149.703 10.0401 149.852 9.63781C149.985 9.27658 150.194 8.94854 150.466 8.67642C150.739 8.40429 151.067 8.19458 151.428 8.06182C152.236 7.77236 153.12 7.77236 153.928 8.06182C154.289 8.1948 154.616 8.40384 154.888 8.67471C155.156 8.94978 155.364 9.27782 155.497 9.63781C155.787 10.451 155.787 11.3392 155.497 12.1524C155.366 12.5142 155.158 12.8431 154.887 13.1165C154.616 13.3898 154.289 13.601 153.928 13.7354C153.121 14.0295 152.235 14.0295 151.428 13.7354C151.072 13.602 150.748 13.397 150.475 13.133C150.204 12.8592 149.994 12.5309 149.859 12.1699C149.706 11.7626 149.63 11.3302 149.635 10.8951ZM155 10.8951C155.004 10.5679 154.948 10.2427 154.835 9.93548C154.733 9.66175 154.574 9.41247 154.37 9.20354C154.163 8.99502 153.915 8.83268 153.641 8.72725C153.34 8.6119 153.019 8.55482 152.696 8.55911C152.369 8.55484 152.045 8.61189 151.74 8.72725C151.462 8.83077 151.21 8.99326 151.001 9.20354C150.794 9.41232 150.633 9.66152 150.528 9.93548C150.303 10.5542 150.303 11.2324 150.528 11.8512C150.633 12.1283 150.794 12.381 151.001 12.5936C151.21 12.8039 151.462 12.9664 151.74 13.0699C152.045 13.1853 152.369 13.2423 152.696 13.2381C153.019 13.2424 153.34 13.1853 153.641 13.0699C153.915 12.9645 154.163 12.8022 154.37 12.5936C154.574 12.3806 154.733 12.1279 154.835 11.8512C154.948 11.5451 155.004 11.2211 155 10.8951ZM151.498 12.5306V9.23855H152.871C153.172 9.22388 153.468 9.32538 153.697 9.52221C153.8 9.61806 153.881 9.73502 153.934 9.86499C153.987 9.99496 154.011 10.1349 154.006 10.2752C154.012 10.4868 153.961 10.6962 153.858 10.8811C153.756 11.0427 153.604 11.1659 153.424 11.2313L154.125 12.5236H153.456L152.797 11.3154H152.097V12.5236L151.498 12.5306ZM152.118 9.83741V10.7235H152.857C153.207 10.7235 153.393 10.5729 153.393 10.2752C153.396 10.2143 153.385 10.1534 153.361 10.0974C153.337 10.0414 153.299 9.99195 153.252 9.95301C153.138 9.86994 152.998 9.82908 152.857 9.83741H152.118Z" fill="#2E21DE"></path><path d="M49.98 18.7365C49.8969 19.5016 49.6585 20.2416 49.2795 20.9114C48.9153 21.5621 48.4275 22.1355 47.8436 22.5994C47.2256 23.0857 46.5259 23.4581 45.7774 23.6991C44.9519 23.9672 44.0885 24.0996 43.2207 24.0914C42.1712 24.1069 41.1296 23.9079 40.1598 23.5065C39.2649 23.1324 38.4619 22.5684 37.8064 21.8535C37.1326 21.1063 36.6168 20.2308 36.2899 19.2794C35.5794 17.1182 35.5794 14.7864 36.2899 12.6252C36.6182 11.6768 37.1352 10.8047 37.8099 10.0616C38.4707 9.34732 39.2784 8.7846 40.1774 8.41206C41.1491 8.01299 42.1914 7.81405 43.2418 7.82718C44.1019 7.8187 44.9579 7.94756 45.7774 8.2089C46.5211 8.44547 47.2171 8.81188 47.8331 9.29111C48.4168 9.7502 48.9067 10.3174 49.276 10.9617C49.652 11.6252 49.8902 12.3577 49.9765 13.1155H47.2553C47.0802 12.2504 46.5896 11.4815 45.8789 10.9582C45.5147 10.6922 45.1086 10.4886 44.6776 10.3557C44.2033 10.2109 43.7097 10.1389 43.2137 10.1421C42.5354 10.1316 41.8633 10.2716 41.2455 10.5519C40.6666 10.8231 40.1566 11.2218 39.7536 11.7181C39.3233 12.2573 39.001 12.8745 38.8044 13.5358C38.5668 14.3059 38.4487 15.1078 38.4542 15.9137C38.4496 16.7253 38.5677 17.533 38.8044 18.3092C39.0055 18.9797 39.3298 19.6068 39.7606 20.1584C40.1615 20.6639 40.6714 21.0722 41.2525 21.3526C41.8649 21.639 42.5343 21.7827 43.2102 21.7729C43.7092 21.7755 44.2055 21.6999 44.6811 21.5488C45.1171 21.407 45.5265 21.194 45.8929 20.9184C46.2421 20.6549 46.54 20.3297 46.7719 19.9588C47.0064 19.5845 47.1658 19.1682 47.2412 18.733L49.98 18.7365Z" fill="#2E21DE"></path><path d="M51.3108 8.10733H53.8464V23.8426H51.3108V8.10733Z" fill="#2E21DE"></path><path d="M65.999 18.859H57.6918C57.6865 19.2956 57.7588 19.7296 57.9054 20.1409C58.0371 20.5021 58.2435 20.8315 58.5113 21.1075C58.7813 21.3784 59.1078 21.5865 59.4674 21.7168C59.8688 21.864 60.2937 21.9364 60.7212 21.9305C61.3038 21.9511 61.8829 21.8309 62.4093 21.5803C62.6184 21.4772 62.8026 21.3299 62.949 21.1484C63.0953 20.967 63.2003 20.7558 63.2568 20.5296H65.8239C65.7045 21.0468 65.483 21.535 65.1724 21.9655C64.863 22.3999 64.4788 22.7758 64.0377 23.0757C63.5723 23.383 63.0635 23.6191 62.5283 23.7761C61.9608 23.9493 61.3705 24.0366 60.7772 24.0353C59.9871 24.0459 59.2024 23.9044 58.4658 23.6185C57.8032 23.3539 57.2058 22.9489 56.7147 22.4313C56.2149 21.8976 55.832 21.2653 55.5905 20.5751C55.0628 19.0049 55.0628 17.3053 55.5905 15.7351C55.8316 15.046 56.2105 14.4133 56.7042 13.8754C57.1945 13.357 57.7921 12.9518 58.4553 12.6882C59.1788 12.4038 59.9509 12.2634 60.7282 12.275C61.4887 12.2627 62.2442 12.3995 62.9521 12.6777C63.5927 12.9342 64.1681 13.3302 64.6366 13.8369C65.112 14.3706 65.4699 14.9982 65.6873 15.6791C65.9407 16.4708 66.0591 17.2996 66.0375 18.1306L65.999 18.859ZM63.4178 17.0134C63.4088 16.635 63.3317 16.2613 63.1902 15.9102C63.0607 15.596 62.8689 15.3113 62.6264 15.0732C62.3836 14.8408 62.0949 14.6619 61.7788 14.5479C61.428 14.4243 61.0581 14.3639 60.6862 14.3693C60.2884 14.3654 59.8928 14.4293 59.5164 14.5583C59.1767 14.6781 58.8619 14.8598 58.5883 15.0942C58.3253 15.3261 58.1131 15.6099 57.965 15.9277C57.8098 16.2698 57.7207 16.6382 57.7023 17.0134H63.4178Z" fill="#2E21DE"></path><path d="M67.1442 16.0643C67.136 15.5278 67.2561 14.9971 67.4945 14.5163C67.7359 14.0501 68.078 13.6433 68.496 13.3256C68.9644 12.9741 69.4941 12.7128 70.058 12.5551C70.7195 12.3662 71.4049 12.2742 72.0928 12.2819C72.7508 12.2741 73.4062 12.3662 74.0365 12.5551C74.5779 12.7158 75.084 12.9773 75.5285 13.3256C75.9301 13.6454 76.2564 14.0495 76.4845 14.5094C76.716 14.9788 76.8359 15.4954 76.8348 16.0188V23.8427H74.4778V22.4418C74.0764 22.9544 73.5574 23.3628 72.9648 23.6325C72.3175 23.9122 71.6176 24.0495 70.9126 24.0353C70.3497 24.0431 69.7892 23.9603 69.2526 23.7902C68.7882 23.6418 68.3574 23.4039 67.9847 23.0897C67.637 22.7889 67.3606 22.4145 67.1757 21.9935C66.9841 21.5516 66.8875 21.0743 66.8921 20.5927C66.8804 20.171 66.9604 19.7519 67.1267 19.3642C67.293 18.9766 67.5416 18.6298 67.8552 18.3477C68.4949 17.764 69.5 17.3648 70.8705 17.15L74.3342 16.6282V16.1028C74.3375 15.8594 74.281 15.6189 74.1696 15.4024C74.0578 15.1884 73.8999 15.0018 73.7073 14.8561C73.489 14.694 73.2417 14.5752 72.9788 14.5059C72.6695 14.4225 72.3501 14.3824 72.0298 14.3867C71.694 14.383 71.3593 14.4254 71.0351 14.5128C70.762 14.5867 70.5029 14.705 70.2682 14.863C70.0682 15.0023 69.9029 15.1857 69.7849 15.3989C69.6675 15.6134 69.6084 15.8549 69.6133 16.0993L67.1442 16.0643ZM74.3342 18.4458L71.4169 18.8836C70.8882 18.9339 70.3832 19.1277 69.9565 19.4439C69.7252 19.6377 69.5651 19.903 69.5016 20.198C69.4382 20.493 69.4751 20.8008 69.6063 21.0725C69.7044 21.2616 69.8431 21.4266 70.0125 21.5558C70.2037 21.6972 70.4183 21.8038 70.6464 21.8709C70.9121 21.951 71.1884 21.99 71.4659 21.9865C71.8517 21.9907 72.2354 21.9291 72.6006 21.8044C72.9336 21.6952 73.2418 21.5214 73.5077 21.2931C73.763 21.0703 73.9662 20.7941 74.103 20.4841C74.2484 20.1531 74.3213 19.7949 74.3167 19.4334L74.3342 18.4458Z" fill="#2E21DE"></path><path d="M84.0598 14.5549C83.6705 14.5509 83.2837 14.6173 82.9181 14.751C82.5863 14.8715 82.2837 15.0608 82.0302 15.3064C81.7767 15.5521 81.578 15.8485 81.4471 16.1764C81.3062 16.5367 81.2361 16.9208 81.2405 17.3076V23.8427H78.7469V12.4781H81.2405V13.977C81.3611 13.7393 81.5195 13.5228 81.7098 13.3361C81.902 13.1477 82.1216 12.9895 82.3612 12.8668C82.6122 12.7352 82.8795 12.6375 83.1562 12.5761C83.4528 12.5096 83.7559 12.4767 84.0598 12.4781H84.9458V14.5549H84.0598Z" fill="#2E21DE"></path><path d="M99.3888 12.5761C99.3935 12.232 99.318 11.8914 99.1682 11.5815C99.019 11.2783 98.8006 11.0144 98.5308 10.811C98.2239 10.5828 97.8771 10.4141 97.5082 10.3137C96.6728 10.0954 95.7972 10.081 94.955 10.2717C94.635 10.3452 94.3303 10.4744 94.055 10.6534C93.8178 10.811 93.6211 11.0221 93.4806 11.2698C93.3439 11.5236 93.274 11.8081 93.2775 12.0963C93.269 12.2928 93.2996 12.489 93.3675 12.6736C93.4355 12.8582 93.5394 13.0274 93.6733 13.1715C93.9716 13.4679 94.3298 13.6972 94.7239 13.8439C95.2021 14.0324 95.6953 14.18 96.1983 14.2852C96.7482 14.4078 97.3121 14.5374 97.8934 14.681C98.4663 14.8201 99.0309 14.9908 99.5849 15.1923C100.116 15.3848 100.614 15.6576 101.063 16.0013C101.503 16.3466 101.861 16.7841 102.113 17.2831C102.395 17.8851 102.529 18.5452 102.506 19.2093C102.516 19.9023 102.38 20.5896 102.106 21.2265C101.843 21.825 101.442 22.3529 100.937 22.7675C100.374 23.221 99.7264 23.5568 99.0316 23.7551C98.1796 24.002 97.2955 24.1201 96.4085 24.1053C95.5166 24.1162 94.6283 23.9898 93.7749 23.7306C93.0404 23.5075 92.358 23.1396 91.7681 22.6484C91.2218 22.1839 90.7872 21.6021 90.4968 20.9464C90.1893 20.2484 90.0364 19.4921 90.0485 18.7295H92.7592C92.7515 19.1626 92.8362 19.5924 93.0078 19.9903C93.1747 20.3671 93.4279 20.6994 93.7468 20.9604C94.0973 21.2441 94.5009 21.4548 94.934 21.5803C95.4508 21.7345 95.9882 21.8089 96.5275 21.8009C97.0184 21.8097 97.508 21.7471 97.981 21.6153C98.3482 21.5108 98.6926 21.3385 98.9966 21.1075C99.2552 20.9074 99.4619 20.6479 99.599 20.351C99.7319 20.0586 99.7989 19.7406 99.7951 19.4194C99.8158 18.9823 99.6763 18.5527 99.4028 18.2112C99.1147 17.8815 98.7554 17.6216 98.3522 17.4512C97.8783 17.2413 97.3843 17.0805 96.8777 16.9714L95.1862 16.5861C94.6118 16.4577 94.0492 16.3013 93.4982 16.1169C92.9727 15.9467 92.4758 15.6988 92.0238 15.3814C91.5874 15.0712 91.228 14.665 90.9731 14.1942C90.6924 13.6319 90.5575 13.008 90.5808 12.38C90.5678 11.7169 90.7055 11.0595 90.9835 10.4573C91.2509 9.90061 91.6413 9.41201 92.1253 9.02843C92.6531 8.62199 93.255 8.32222 93.8974 8.14587C95.4432 7.73158 97.0725 7.74489 98.6113 8.18439C99.2894 8.38236 99.924 8.70675 100.482 9.14048C100.99 9.53909 101.4 10.0496 101.679 10.6324C101.965 11.24 102.109 11.9047 102.1 12.5761H99.3888Z" fill="#2E21DE"></path><path d="M116.301 14.5549C115.912 14.5512 115.525 14.6176 115.159 14.751C114.828 14.8749 114.526 15.0643 114.27 15.3078C114.019 15.5538 113.822 15.8497 113.692 16.1764C113.548 16.536 113.477 16.9204 113.482 17.3076V23.8427H110.992V12.4781H113.482V13.977C113.603 13.7399 113.762 13.5236 113.951 13.3361C114.143 13.1477 114.363 12.9895 114.602 12.8668C114.855 12.7357 115.123 12.638 115.401 12.5762C115.696 12.5094 115.998 12.4764 116.301 12.4781H117.204V14.5549H116.301Z" fill="#2E21DE"></path><path d="M128.32 18.859H120.006C119.999 19.2957 120.072 19.7301 120.22 20.1408C120.35 20.5027 120.557 20.8323 120.826 21.1075C121.096 21.3784 121.422 21.5864 121.782 21.7168C122.182 21.8642 122.606 21.9367 123.032 21.9305C123.615 21.9515 124.194 21.8313 124.72 21.5802C124.93 21.4778 125.114 21.3306 125.261 21.1491C125.407 20.9676 125.512 20.7561 125.568 20.5296H128.135C128.015 21.0461 127.795 21.534 127.487 21.9655C127.175 22.3992 126.79 22.7749 126.349 23.0757C125.884 23.3829 125.377 23.619 124.843 23.7761C124.275 23.9487 123.685 24.036 123.092 24.0353C122.302 24.0465 121.517 23.905 120.78 23.6185C120.117 23.3549 119.519 22.9498 119.029 22.4313C118.527 21.8988 118.142 21.2663 117.901 20.5751C117.378 19.0041 117.378 17.3061 117.901 15.7351C118.142 15.046 118.521 14.4133 119.015 13.8754C119.505 13.357 120.103 12.9518 120.766 12.6882C121.49 12.4033 122.262 12.263 123.039 12.2749C123.8 12.2631 124.555 12.3998 125.263 12.6777C125.902 12.9352 126.476 13.3311 126.944 13.8369C127.419 14.3706 127.777 14.9982 127.995 15.6791C128.25 16.4704 128.368 17.2995 128.345 18.1306L128.32 18.859ZM125.743 17.0134C125.735 16.6345 125.656 16.2605 125.512 15.9102C125.383 15.5962 125.193 15.3115 124.951 15.0732C124.707 14.8423 124.419 14.6636 124.104 14.5479C123.753 14.4252 123.383 14.3647 123.011 14.3692C122.613 14.3654 122.218 14.4293 121.841 14.5583C121.501 14.6774 121.186 14.8591 120.913 15.0942C120.649 15.3251 120.437 15.6091 120.29 15.9277C120.131 16.2687 120.042 16.6377 120.027 17.0134H125.743Z" fill="#2E21DE"></path><path d="M139.969 18.859H131.665C131.658 19.2957 131.73 19.7301 131.879 20.1408C132.009 20.5027 132.216 20.8323 132.484 21.1075C132.754 21.3784 133.081 21.5864 133.441 21.7168C133.841 21.8642 134.265 21.9367 134.691 21.9305C135.274 21.9515 135.853 21.8313 136.379 21.5802C136.588 21.4778 136.773 21.3306 136.919 21.1491C137.066 20.9676 137.171 20.7561 137.226 20.5296H139.794C139.674 21.0461 139.454 21.534 139.146 21.9655C138.834 22.3992 138.449 22.7749 138.007 23.0757C137.543 23.3829 137.036 23.619 136.502 23.7761C135.934 23.9487 135.344 24.036 134.75 24.0353C133.96 24.0465 133.175 23.905 132.439 23.6185C131.776 23.3549 131.178 22.9498 130.688 22.4313C130.186 21.8988 129.801 21.2663 129.56 20.5751C129.037 19.0041 129.037 17.3061 129.56 15.7351C129.801 15.046 130.18 14.4133 130.674 13.8754C131.164 13.357 131.762 12.9518 132.425 12.6882C133.148 12.4033 133.921 12.263 134.698 12.2749C135.458 12.2631 136.214 12.3998 136.922 12.6777C137.561 12.9352 138.135 13.3311 138.603 13.8369C139.078 14.3706 139.436 14.9982 139.654 15.6791C139.909 16.4704 140.027 17.2995 140.004 18.1306L139.969 18.859ZM137.391 17.0134C137.383 16.6345 137.305 16.2605 137.16 15.9102C137.032 15.5962 136.841 15.3115 136.6 15.0732C136.356 14.8423 136.067 14.6636 135.752 14.5479C135.401 14.4252 135.031 14.3647 134.659 14.3692C134.262 14.3654 133.866 14.4293 133.49 14.5583C133.149 14.6774 132.835 14.8591 132.562 15.0942C132.297 15.3251 132.085 15.6091 131.938 15.9277C131.78 16.2687 131.69 16.6377 131.676 17.0134H137.391Z" fill="#2E21DE"></path><path d="M108.253 23.8426H109.654V21.7904H107.139V14.5549H109.566V12.4781H107.139V9.86194H104.628V12.4781H102.846V14.5549H104.614V21.0374C104.614 21.7805 104.909 22.4931 105.435 23.0185C105.96 23.544 106.673 23.8391 107.416 23.8391L108.253 23.8426Z" fill="#2E21DE"></path><path d="M145.828 23.8426H147.246V21.7904H144.735V14.5549H147.159V12.4781H144.732V9.86194H142.224V12.4781H140.428V14.5549H142.196V21.0374C142.196 21.7805 142.491 22.4931 143.017 23.0185C143.542 23.544 144.255 23.8391 144.998 23.8391L145.828 23.8426Z" fill="#2E21DE"></path></g><defs><clipPath id="clip0_1907_773"><rect width="153.718" height="28" fill="white" transform="translate(2 1.97501)"></rect></clipPath></defs></svg>